<svg version="1" xmlns="http://www.w3.org/2000/svg" width="933.333" height="933.333" viewBox="0 0 700.000000 700.000000"><path d="M464 24.1c-31.2 4.9-58.2 16.3-83.5 35.1-9.3 6.9-12.1 11-11.1 16.1 1.9 9.5 12.4 11.7 20.6 4.2 4.3-3.9 18.1-12.8 26.7-17.3 16.1-8.3 37.3-15.1 52.8-16.8 3.3-.3 6.9-.8 8-1 4.7-1 27.1-.3 37.1 1.1C573 53.7 622.4 92.4 644.4 147c3.4 8.4 8 24.2 9 31 .3 1.9.8 4.6 1 6 2.3 11.9 2 37.7-.4 50.5-.5 2.7-1.1 6.1-1.4 7.5-.2 1.4-1.3 5.7-2.5 9.5-3.3 11.2-3.4 13.3-1.2 16.9 4 6.4 11.1 7.4 16.4 2.3 2.7-2.5 3.8-4.9 5.6-11.5 5.5-20.4 6.6-29.2 6.6-51.2 0-26.3-2.8-42.4-11.2-65-23.9-64-80.4-109.3-148.8-119.4-13.4-1.9-39.9-1.7-53.5.5z"/><path d="M193.5 99.2c-3.4.9-6.3 4.2-7.5 8.7-1.4 5.3-13.1 52.3-13.6 54.5-.2 1-1 4.2-1.8 7s-1.7 6.5-2.1 8.3c-.3 1.8-.9 4.3-1.5 5.7l-1 2.6h-29.4c-20.2 0-30.3.4-32 1.2-3.6 1.6-5 4.1-8.4 15.4-1.7 5.4-5.1 16.4-7.5 24.4-2.5 8-6.1 19.7-8.1 26-1.9 6.3-8.4 27.6-14.5 47.4C60 320.1 55 337.8 55 339.6c0 2.3.9 4.4 2.9 6.6l2.9 3.3 24.4.3 24.3.3-.1 99.5c0 109.8-.4 103.8 6.4 107 3.2 1.5 4.1 1.5 7.6.3 2.1-.8 4.8-2.6 5.9-4.1 1.9-2.6 2-4.7 2-102.7V350h437.6l-.1 100c-.1 111.3-.6 103.2 6.7 106.7 4.4 2.1 10.1.6 13-3.5 2-2.7 2-4.4 2.2-100.7 0-53.9.2-99 .2-100.2.1-2.2.2-2.2 24.2-2.5l24.1-.3 2.9-3.3c3.7-4.2 3.7-7.5 0-19.4-1.7-5.1-6.4-20.6-10.6-34.3-13.7-44.7-15.2-49.7-22.9-74.5-4.2-13.5-8.1-25.4-8.7-26.6-2.7-5.1-4.4-5.4-36.6-5.4h-29.9l-4.2-17.3c-2.4-9.4-4.5-18-4.7-19-.3-.9-.7-2.5-.9-3.5-.2-.9-1.8-7.3-3.6-14.2-1.7-6.9-3.3-13.2-3.5-14-2.6-11.7-4.2-15.6-7.4-17.7-2.5-1.7-10.6-1.8-157.8-1.8-85.3 0-156.3.3-157.8.7zm45 26.7c-.4 3.1-.8 6.7-1 8.1-.2 1.4-.7 4.7-1 7.5-.3 2.7-.8 6.3-1 8-.2 1.6-.6 5.5-1 8.5s-.8 6.6-1 8c-.2 1.4-.7 5.2-1.1 8.4-.3 3.3-.8 6.7-.9 7.5-.2.9-.4 2.2-.4 2.8-.1 1-5 1.3-21.2 1.3-19.6 0-21-.1-20.5-1.8.3-.9 3.9-15.3 8-32 4.1-16.6 7.7-30.6 8-31 .3-.5 8-.8 17.1-.9h16.6l-.6 5.6zm66.6-4c.1.9.1 1.8.1 2.1 0 .3-.3 5.7-.7 12-.4 6.3-.9 13.7-1 16.5-.2 2.7-.6 10.6-1 17.4-.4 6.8-.8 13.1-.9 14-.3 1.4-2.9 1.6-24.5 1.9l-24.2.2.5-4c.7-5.1 1.4-10.3 2.1-15.8.3-2.3.7-6.1 1-8.5.6-5 1.2-9.8 2-15.2.2-2.2.7-5.6.9-7.5.2-1.9.7-6 1.1-9.1l.7-5.6h21.9c19.3 0 21.9.2 22 1.6zm67.2-.9c.3.3.8 6.6 1.2 14 .4 7.4.8 15.3 1 17.5.2 2.2.6 8.9 1 15 .3 6 .8 12.7.9 14.7l.3 3.8h-53.4l.3-3.8c.1-2 .5-8.7.9-14.7.3-6.1.8-13.3 1-16 .2-2.8.6-10 1-16.2.6-9.4 1-14.4 1.4-14.9.3-.4 44 .2 44.4.6zm66.1-.1c.4.6 1 4.4 2.1 13.1.8 6.7 1.6 12.3 2 16 .3 1.9.7 5.5 1 8 .3 2.5.7 6.1 1 8 .2 1.9.7 5.5 1 8 .3 2.5.8 6.2 1.1 8.3l.5 3.7-24.3-.2c-23.5-.3-24.3-.4-24.4-2.3-.1-1.1-.5-7.4-.9-14s-.8-13.8-1-16c-.2-2.2-.6-9.5-1-16.1-.3-6.7-.8-13-.9-14-.2-1.1-.2-2.2 0-2.5.4-.8 43.4-.8 43.8 0zm58.6 9c1.3 5.3 2.5 10 2.6 10.6.1.5 2.5 10.2 5.3 21.5s5.3 21.3 5.5 22.2c.4 1.7-1.1 1.8-20.4 1.8h-20.8l-.6-4.3c-.3-2.3-.9-6.2-1.1-8.7-.3-2.5-.8-5.9-1-7.5-.3-1.7-.7-5.5-1-8.5-.3-3-.8-6.4-1-7.5-.2-1.1-.7-4.7-1-8-.3-3.3-.7-6.9-1-8-.2-1.1-.7-4.5-1-7.6l-.6-5.6h33.8l2.3 9.6zm-270.6 78c1.9.1 1.9 1.8.1 13.6-.2 1.6-.7 4.9-.9 7.2-.3 2.2-1.5 11.9-2.7 21.5-1.1 9.5-2.2 18.2-2.3 19.3-.1 1.2-.5 2.5-.8 3-.8 1.3-52.3 1.2-52.2-.1.1-.5 3.7-15.2 8-32.6 7.6-30.8 7.9-31.7 10.4-32 2-.2 32.8-.1 40.4.1zm73.1 9.6c-.3 5.5-.8 12.9-1 16.5-.3 3.6-.7 10.5-1 15.5-1.1 18.2-1.6 22.9-2.4 23.5-.7.4-49.2.5-52.4.1-.4-.1-.5-1.3-.3-2.9.3-1.5.8-5.2 1.1-8.2.3-3 .8-6.6 1-8 .2-1.4.7-5 1-8 .6-5.3.8-7.1 1.9-15 .3-1.9.8-6 1.1-9 .3-3 .8-6.4 1-7.5.2-1.1.4-3 .4-4.2.1-2.8.1-2.8 27.4-2.8H300l-.5 10zm78.1-9.2c.3.3.7 4.3 1 8.8.3 4.6.7 11.1.9 14.4 1.2 17.1 1.9 29.7 1.9 35.4l.1 6.5h-31.8l-31.8.1.6-10c.3-5.5.8-12.7 1-16 .2-3.3.7-10.1 1-15 1.2-19.4 1.7-24 2.5-24.5 1.1-.7 53.9-.4 54.6.3zm71.9-.1c.2.1.6 2.8 1 5.8.3 3 .8 6.6 1 8 .2 1.4.7 5 1 8 .4 3 .9 6.8 1.1 8.5.2 1.6.6 5 .9 7.5.3 2.5.7 6.1 1 8 .2 1.9.7 5.7 1.1 8.5.4 2.7.7 6.3.8 7.9l.1 3h-26.3c-14.5.1-26.5-.2-26.7-.5-.4-.6-1-8.3-2-23.9-.8-13.5-1.3-21.2-2-31.7-.5-8.1-.4-9.2 1.1-9.5 2.2-.4 47.5-.1 47.9.4zm65-.3c1.8.1 2.5 1.9 5.5 13.8 1.9 7.6 3.5 14.2 3.6 14.8.1.5 2.2 9 4.7 18.7 2.9 11.5 4.1 17.8 3.3 17.9-7.4.6-50.9.2-51.4-.5-.3-.5-.6-2.1-.8-3.5-.8-7.5-1.5-13.1-1.9-15.1-.2-1.2-.7-4.9-1-8.3-.9-8.9-2.4-20.3-3-23.9-.2-.9-.7-4.5-1-8l-.6-6.3 20.3.2c11.2.1 21.2.2 22.3.2z"/><path d="M200.3 375.5c-3.3 3.3-3.5 3.9-3 8.1.6 5.4 2.7 8 7.7 9.5s10.2-.9 12.5-5.8c3.5-7.2-2-15.3-10.3-15.3-2.6 0-4.3.9-6.9 3.5zM487 373.3c-3.4 1.7-6.3 7.9-5.5 11.6.3 1.6 1.7 4.1 3.1 5.4 7 7 18.4 1.8 18.4-8.4 0-4.4-5.6-9.9-10.1-9.9-1.9 0-4.5.6-5.9 1.3zM343 405.1c-27 2.9-49.3 22.2-56.6 48.9-1.6 5.9-1.8 13.2-2 81.5-.1 41.2-.3 75.5-.3 76-.1.7-4.6 1-12.2 1-9.8 0-12.6.3-15 1.7-2.2 1.3-5.3 6.6-12.9 21.8-9.3 18.6-10.2 20-12.8 20.1-16.5.3-51.2.3-51.2-.1 0-.3.7-1.5 1.5-2.7 4.4-6.2 5.5-23.7 2-33.3-4.8-13.4-16.6-24.2-30.5-28-4.7-1.3-17.2-1.6-18.9-.6-.5.4-4-2.4-7.8-6.1-7.2-7.3-17.3-13-26.7-15.2-5.6-1.4-20.3-1.3-25.6.1-8.1 2.1-18.5 8.3-25 14.8-10.8 10.8-16.2 24.3-15.9 39.8.4 20 11.3 37.3 29.9 47.4 10.4 5.6-8.5 5.3 287.5 5.3h273l6.5-2.4c15.4-5.6 27.4-17 33.1-31.2 2.7-6.9 2.9-7.9 3.6-17.1.6-7.7-1.1-20.3-2.8-21.4-.5-.3-.9-1.3-.9-2.3 0-3-9.3-16.4-14.6-20.9-22-18.7-54.2-17.5-74.6 3-3.8 3.8-7.3 6.6-7.9 6.3-1.7-1.1-14.3-.8-18.9.5-14.7 3.9-28 17.2-31.7 31.5-2 7.7-.8 20.2 2.7 29 .6 1.6 1.1 3.2 1.1 3.3-.1.3-42.5.5-50.8.3-1.9-.1-3.8-3.2-12.3-20.1-6.9-13.8-10.8-20.5-12.6-21.7-2.2-1.4-5-1.7-14.5-1.8-6.5 0-12.1-.4-12.6-.8-.4-.5-.8-34.4-.9-75.5-.1-41.1-.4-76.1-.7-77.7-1-5.7-5-15.9-8.5-21.9-3.6-6.1-13.1-16.3-18.7-20.3-12.3-8.4-29.7-12.8-44.5-11.2zm92.9 239.7c2.9 5.7 5 10.6 4.7 10.9-.6.7-180.6.7-181.2 0-.3-.3 1.8-5.2 4.7-11l5.2-10.4 80.7.1h80.7l5.2 10.4z"/><path d="M171.1 416.7c-2 .7-3.7 1.3-3.7 1.3-.1 0-.9 1.5-1.8 3.4-1.4 3-1.6 9.9-1.6 59.5 0 62.7-.1 61.9 6.4 64.6 5.3 2.2 70.3 2.2 75 0 6.3-3 6-.4 6.1-63.4 0-41.8-.3-58.1-1.2-60.2-2.6-6.2-3-6.3-41.1-6.4-25.2 0-35.5.3-38.1 1.2zm58.5 42.6l.1 21.7-5.4.1H196l-10-.1v-21.3c0-11.8.2-21.6.5-21.8.2-.3 10-.5 21.7-.4h21.3l.1 21.8zm.1 54.7l.1 11H186v-22h43.7v11zM455.7 416.5c-1.6.5-4 2.3-5.1 3.8-2.1 2.8-2.1 3.6-2.1 60.6 0 63.4-.2 61.6 6 64.6 4.7 2.2 69.7 2.3 75 .1 6.8-2.9 6.6-1.1 6.3-65.4-.3-63.1-.1-60.8-6.2-63.4-3.8-1.5-69.3-1.8-73.9-.3zm58.3 42.7V481l-3.5.1h-28.4l-11.8-.1.2-21.3c.1-11.6.3-21.4.3-21.7.1-.3 9.9-.5 21.7-.5H514v21.7zm0 54.8v11h-43.7l.2-10.8c.1-5.9.3-10.8.4-11 0-.1 9.8-.2 21.6-.2H514v11z"/></svg>